# xmcd
#
# Track frame offsets:
#	150
#	16250
#	33830
#	52890
#	70730
#	90350
#	114865
#	132607
#	156467
#	173737
#	189005
#
# Disc length: 2790 seconds
#
# Revision: 0
# Processed by: cddbd v1.4PL0 Copyright (c) Steve Scherf et al.
# Submitted via: EasyCDDAExtractor 5.0.5.1
#
DISCID=7d0ae40b
DTITLE=Ronan Keating - Ronan
DYEAR=2001
DGENRE=Pop
TTITLE0=Lovin' Each Day
TTITLE1=Life Is A Rollercoaster
TTITLE2=Heal Me
TTITLE3=I Got My Heart On You
TTITLE4=When You Say Nothing At All
TTITLE5=Addicted
TTITLE6=Keep On Walking
TTITLE7=When The World Was Mine
TTITLE8=The Way You Make Me Feel
TTITLE9=If You Love Me
TTITLE10=Only For You
EXTD=
EXTT0=
EXTT1=
EXTT2=
EXTT3=
EXTT4=
EXTT5=
EXTT6=
EXTT7=
EXTT8=
EXTT9=
EXTT10=
PLAYORDER=
